<svg xmlns="http://www.w3.org/2000/svg" width="64" height="64" viewBox="0 0 64 64">
  <rect width="64" height="64" rx="12" fill="#f4f5f7"/>
  <rect x="16" y="8" width="24" height="48" rx="12" fill="#20242a"/>
  <rect x="22" y="14" width="12" height="10" rx="3" fill="#4f5965"/>
  <rect x="22" y="28" width="12" height="20" rx="5" fill="#3a424c"/>
  <g transform="translate(36 30)">
    <rect x="6" y="0" width="8" height="8" rx="2" fill="#16a34a"/>
    <rect x="6" y="16" width="8" height="8" rx="2" fill="#16a34a"/>
    <rect x="-4" y="8" width="8" height="8" rx="2" fill="#16a34a"/>
    <rect x="16" y="8" width="8" height="8" rx="2" fill="#16a34a"/>
    <path d="M10 2.5 8.5 4h3z" fill="#eafff0"/>
    <path d="M10 21.5 8.5 20h3z" fill="#eafff0"/>
    <path d="M-0.5 12 1 10.5v3z" fill="#eafff0"/>
    <path d="M20.5 12 19 10.5v3z" fill="#eafff0"/>
  </g>
</svg>
